<svg version="1.2" xmlns="http://www.w3.org/2000/svg" viewBox="0 0 1546 291" width="1546" height="291"><defs><clipPath clipPathUnits="userSpaceOnUse" id="cp1"><path d="m-10105-135h11889v6683h-11889z"/></clipPath></defs><style>.a{fill:#213e7f}.b{fill:#fff}</style><g clip-path="url(#cp1)"><path class="a" d="m1545.4 0.3v290.4h-1545.4v-290.4z"/><path fill-rule="evenodd" class="b" d="m1466.1 79.5v132h-132v-132zm-462.3 59.4c0 0 0 0 0 56.1 0 0 0 0 0 3.3-13.2 16.5-36.4 26.4-59.5 26.4-42.9 0-72.6-29.7-72.6-72.6 0-42.9 29.7-72.6 72.6-72.6 23.1 0 39.6 9.9 52.9 23.1 0 0 0 0 3.3 0 0 0 0 0-19.9 16.5-9.9-9.9-23.1-13.2-36.3-13.2-26.4 0-46.2 16.5-46.2 46.2 0 29.7 19.8 46.2 46.2 46.2q19.8 0 29.7-9.9c0 0 0 0 0-23.1 0 0 0 0-33 0 0 0 0 0 0-26.4zm56-34.3v31.5h72.7v21.9h-72.7v53.5h-29.7v-132h105.7v25.1zm194.9-25.1v25.1h-39.6v106.9h-29.7v-106.9h-36.4v-25.1z"/></g></svg>