<svg xmlns:inkscape="http://www.inkscape.org/namespaces/inkscape" xmlns:sodipodi="http://sodipodi.sourceforge.net/DTD/sodipodi-0.dtd" xmlns="http://www.w3.org/2000/svg" xmlns:svg="http://www.w3.org/2000/svg" width="139.09599" height="30.855753" viewBox="0 0 139.09599 30.855753" preserveAspectRatio="xMidYMid meet" color="#d10505" version="1.1" id="svg8" sodipodi:docname="MasMovil.svg" inkscape:version="1.1.1 (3bf5ae0d25, 2021-09-20)">
  <defs id="defs12" fill="#d10505"/>
  <sodipodi:namedview id="namedview10" pagecolor="#ffffff" bordercolor="#999999" borderopacity="1" inkscape:pageshadow="0" inkscape:pageopacity="0" inkscape:pagecheckerboard="0" showgrid="false" fit-margin-top="0" fit-margin-right="0" fit-margin-bottom="0" fit-margin-left="0" inkscape:zoom="9.4532374" inkscape:cx="79.602359" inkscape:cy="28.508752" inkscape:window-width="1920" inkscape:window-height="1001" inkscape:window-x="-9" inkscape:window-y="-9" inkscape:window-maximized="1" inkscape:current-layer="svg8" fill="#d10505"/>
  <g fill="none" fill-rule="evenodd" id="g6" transform="translate(0,-0.76624716)">
    <path fill="#ffe200" d="m 119.185,26.768 c -1.3,0 -2.717,0.74 -2.717,2.149 v 0.585 c 0,1.457 1.46,2.119 2.717,2.119 1.317,0 2.749,-0.653 2.749,-2.119 v -0.585 c 0,-1.263 -1.191,-2.149 -2.749,-2.149 m 0,-19.723 c -1.3,0 -2.717,0.849 -2.717,2.47 V 21.85 c 0,1.673 1.46,2.437 2.717,2.437 1.317,0 2.749,-0.754 2.749,-2.437 V 9.515 c 0,-1.454 -1.191,-2.47 -2.749,-2.47" id="path2"/>
    <path fill="#ffffff" d="m 88.221,5.378 c 0.196,0 0.417,-0.048 0.638,-0.17 L 92.786,3.387 C 93.349,3.123 93.571,2.659 93.571,2.2 93.57,1.496 93.004,0.767 92.22,0.767 a 1.28,1.28 0 0 0 -0.639,0.146 l -3.925,1.844 c -0.564,0.266 -0.785,0.727 -0.785,1.19 0,0.702 0.566,1.431 1.35,1.431 z m -58.64,0 a 1.3,1.3 0 0 0 0.633,-0.17 l 3.929,-1.82 c 0.563,-0.265 0.784,-0.729 0.784,-1.188 0,-0.704 -0.563,-1.433 -1.35,-1.433 -0.197,0 -0.417,0.024 -0.636,0.146 l -3.926,1.844 c -0.564,0.266 -0.785,0.727 -0.785,1.19 0,0.702 0.565,1.431 1.35,1.431 z m 82.226,1.666 c -0.85,0 -1.699,0.456 -1.947,1.54 l -3.328,14.007 -3.327,-14.007 c -0.245,-1.084 -1.098,-1.54 -1.911,-1.54 -1.095,0 -2.124,0.734 -2.124,1.962 0,0.102 0.037,0.282 0.071,0.523 l 4.991,20.484 c 0.248,0.978 1.062,1.608 2.3,1.608 1.241,0 2.055,-0.63 2.302,-1.608 l 4.99,-20.484 c 0.035,-0.104 0.072,-0.28 0.072,-0.523 0,-1.228 -1.06,-1.962 -2.09,-1.962 z m 25.237,20.378 h -6.971 V 9.075 c 0,-1.366 -1.03,-2.03 -2.055,-2.03 -1.028,0 -2.053,0.664 -2.053,2.03 v 20.342 c 0,1.084 0.955,2.031 2.053,2.031 h 9.026 c 1.38,0 2.052,-1.017 2.052,-1.996 0,-1.016 -0.671,-2.03 -2.052,-2.03 z m -44.81,-2.627 c 0,1.645 -1.308,2.836 -2.974,2.836 h -0.316 c -1.664,0 -2.975,-1.226 -2.975,-2.87 V 13.907 c 0,-1.646 1.31,-2.84 2.975,-2.84 h 0.316 c 1.666,0 2.974,1.194 2.974,2.84 V 24.794 Z M 89.26,7.045 h -0.316 c -3.858,0 -7.082,2.973 -7.082,6.863 v 10.887 c 0,3.885 3.224,6.826 7.082,6.826 h 0.316 c 3.966,0 7.08,-2.903 7.08,-6.86 V 13.907 c 0,-3.89 -3.114,-6.864 -7.08,-6.864 z m -61.158,14.914 2.229,-7.39 2.23,7.39 H 28.1 Z m 4.495,-13.2 c -0.57,-1.54 -1.381,-1.716 -2.266,-1.716 -0.886,0 -1.734,0.142 -2.266,1.716 l -6.479,20.27 c -0.103,0.247 -0.103,0.422 -0.103,0.667 0,1.224 1.026,1.924 2.124,1.924 0.813,0 1.592,-0.386 1.91,-1.399 l 1.31,-4.237 h 7.008 l 1.31,4.237 c 0.284,1.013 1.062,1.399 1.875,1.399 1.099,0 2.123,-0.7 2.123,-1.924 0,-0.21 -0.036,-0.42 -0.109,-0.666 L 32.597,8.76 Z M 16.348,7.044 H 15.82 c -1.31,0 -1.842,0.807 -2.228,1.75 L 9.2,18.597 4.81,8.794 C 4.388,7.851 3.891,7.044 2.58,7.044 H 2.051 C 0.954,7.044 0,7.99 0,9.075 v 20.552 c 0,1.365 1.022,1.995 2.052,1.995 1.025,0 2.052,-0.63 2.052,-1.995 V 16.812 l 3.008,6.864 c 0.53,1.154 1.416,1.363 2.089,1.363 0.674,0 1.558,-0.21 2.089,-1.363 l 3.006,-6.864 v 12.814 c 0,1.365 1.03,1.995 2.052,1.995 1.031,0 2.053,-0.63 2.053,-1.995 V 9.077 c 0,-1.086 -0.953,-2.032 -2.053,-2.032 z m 29.167,6.72 v -0.522 c 0,-1.366 1.205,-2.173 2.76,-2.173 h 0.32 c 1.697,0 2.83,0.737 2.83,1.682 0,2.523 4.069,2.486 4.069,-0.104 0,-3.36 -3.256,-5.603 -6.899,-5.603 h -0.32 c -3.076,0 -6.866,2.205 -6.866,5.987 v 0.734 c 0,6.407 10.3,6.83 10.3,11.204 0,1.788 -1.309,2.662 -3.114,2.662 h -0.32 c -1.804,0 -3.008,-1.05 -3.008,-2.976 0,-1.368 -1.027,-2.03 -2.055,-2.03 -1.022,0 -2.05,0.662 -2.05,2.03 0,4.412 3.292,6.966 7.113,6.966 h 0.32 c 4.106,0 7.219,-2.626 7.219,-6.652 0,-7.246 -10.3,-8.403 -10.3,-11.204 z m 30.228,-6.72 h -0.534 c -1.312,0 -1.84,0.807 -2.228,1.75 l -4.388,9.802 -4.391,-9.802 c -0.425,-0.943 -0.92,-1.75 -2.228,-1.75 h -0.53 c -1.1,0 -2.054,0.946 -2.054,2.031 v 20.552 c 0,1.366 1.027,1.995 2.054,1.995 1.023,0 2.051,-0.629 2.051,-1.995 V 16.812 l 3.006,6.864 c 0.532,1.154 1.42,1.363 2.092,1.363 0.672,0 1.557,-0.21 2.085,-1.363 l 3.01,-6.864 v 12.814 c 0,1.365 1.026,1.995 2.055,1.995 1.026,0 2.05,-0.63 2.05,-1.995 V 9.077 c 0,-1.086 -0.958,-2.032 -2.05,-2.032 z" id="path4"/>
  </g>
</svg>